<svg xmlns="http://www.w3.org/2000/svg" viewBox="0 0 1000 1000"><defs><style>.cls-1{fill:#ff596e;}.cls-2,.cls-3,.cls-4{fill:none;stroke:#fff;stroke-linecap:round;stroke-linejoin:round;}.cls-2{stroke-width:61px;}.cls-3{stroke-width:41px;}.cls-4{stroke-width:37px;}</style></defs><g id="sfondo"><rect class="cls-1" width="1000" height="1000"/></g><g id="Layer_4" data-name="Layer 4"><path class="cls-2" d="M508.14,237.79c92.3,71.25,79,161.09,47.76,213.93-54.24,91.8-158.19,177.94-158.19,177.94-138.61-157.07-162.49-264-106.34-378.84,42.72-87.4,117.51-118,117.51-118,107.24-42.43,163.53-15,205.18,6.2,0,0,72.17,38,107.18,117.11,55.92,126.37-43.49,329.28-219.91,488.66" transform="translate(0)"/><path class="cls-3" d="M484.58,547.16" transform="translate(0)"/><path class="cls-3" d="M389.14,451.72" transform="translate(0)"/><path class="cls-3" d="M405,425.21" transform="translate(0)"/><path class="cls-3" d="M394.68,409.83" transform="translate(0)"/><line class="cls-2" x1="442.43" y1="377.03" x2="537.62" y2="460.96"/><circle class="cls-4" cx="500" cy="848.03" r="34.13"/></g></svg>